<svg width="175" height="175" viewBox="0 0 175 175" fill="none" xmlns="http://www.w3.org/2000/svg">
<mask id="mask0_10_229" style="mask-type:alpha" maskUnits="userSpaceOnUse" x="0" y="0" width="175" height="175">
<path d="M58.56 87.5894C58.56 71.3608 71.3111 58.6097 87.5397 58.6097C103.768 58.6097 116.519 71.3608 116.519 87.5894C116.519 103.818 103.768 116.569 87.5397 116.569C71.3111 116.569 58.56 103.818 58.56 87.5894ZM42.9109 87.5894C42.9109 112.512 62.6172 132.218 87.5397 132.218C112.462 132.218 132.168 112.512 132.168 87.5894C132.168 62.6669 112.462 42.9607 87.5397 42.9607C62.6172 42.9607 42.9109 62.6669 42.9109 87.5894ZM123.475 41.2219C123.475 43.5403 124.054 45.2791 125.213 47.0179C126.372 48.7566 128.111 49.9159 129.85 51.075C131.589 52.2342 133.907 52.2342 135.646 51.6546C137.385 51.075 139.703 50.4954 140.862 48.7567C142.601 47.0179 143.181 45.2791 143.76 43.5403C144.34 41.8015 143.76 39.4832 143.181 37.7444C142.601 36.0056 140.862 34.2668 139.124 33.1076C137.385 31.9484 135.646 31.3689 133.328 31.3689C130.43 31.3689 128.111 32.528 125.793 34.2668C124.634 36.0056 123.475 38.324 123.475 41.2219ZM52.1847 158.3C43.4908 157.72 38.8537 156.561 35.9558 155.402C31.8986 153.663 29.0009 151.924 26.103 149.026C23.205 146.128 20.8864 143.23 19.7272 139.173C18.568 136.275 16.8293 131.638 16.8293 122.945C16.2497 113.671 16.2498 110.773 16.2498 87.5894C16.2498 64.4057 16.2497 61.5077 16.8293 52.2342C17.4088 43.5403 18.568 38.9035 19.7272 36.0056C21.466 31.9484 23.205 29.0505 26.103 26.1525C29.0009 23.2545 31.8986 20.9362 35.9558 19.777C38.8537 18.6178 43.4908 17.4586 52.1847 16.879C61.4581 16.2994 64.356 16.2994 87.5397 16.2994C110.723 16.2994 113.621 16.2994 122.895 16.879C131.589 17.4586 136.226 18.6178 139.124 19.777C143.181 21.5158 146.078 23.2545 148.976 26.1525C151.874 29.0505 153.613 31.9484 155.352 36.0056C156.511 38.9035 158.25 43.5403 158.25 52.2342C158.83 61.5077 158.83 64.4057 158.83 87.5894C158.83 110.773 158.83 113.671 158.25 122.945C157.671 131.638 156.511 136.275 155.352 139.173C153.613 143.23 151.874 146.128 148.976 149.026C146.078 151.924 143.181 153.663 139.124 155.402C136.226 156.561 131.589 157.72 122.895 158.3C113.621 158.879 110.723 158.879 87.5397 158.879C64.356 158.879 61.4581 158.879 52.1847 158.3ZM51.6049 1.22998C42.3314 1.80957 35.956 2.96878 30.7396 5.28715C24.9437 7.60553 20.3069 10.5035 15.0905 15.1402C10.4538 19.777 7.55576 24.9933 5.23738 30.7893C2.91901 36.5852 1.75975 42.3811 1.18016 51.6546C0.600566 60.9281 0.600708 63.8261 0.600708 87.5894C0.600708 111.353 0.600566 114.251 1.18016 123.524C1.75975 132.798 2.91901 139.173 5.23738 144.39C7.55576 150.185 10.4538 154.822 15.0905 160.039C19.7273 164.675 24.9437 167.573 30.7396 169.892C36.5356 172.21 42.3314 173.369 51.6049 173.949C60.8783 174.528 63.7764 174.528 87.5397 174.528C111.303 174.528 114.201 174.528 123.475 173.949C132.748 173.369 139.123 172.21 144.34 169.892C150.136 167.573 154.773 164.675 159.989 160.039C164.626 155.402 167.524 150.185 169.842 144.39C172.16 138.594 173.32 132.798 173.899 123.524C174.479 114.251 174.479 111.353 174.479 87.5894C174.479 63.8261 174.479 60.9281 173.899 51.6546C173.32 42.3811 172.16 36.0056 169.842 30.7893C167.524 24.9933 164.626 20.3566 159.989 15.1402C155.352 10.5035 150.136 7.60553 144.34 5.28715C138.544 2.96878 132.748 1.80957 123.475 1.22998C114.201 0.650382 111.303 0.650391 87.5397 0.650391C63.7764 0.650391 60.8783 0.650382 51.6049 1.22998Z" fill="white"/>
</mask>
<g mask="url(#mask0_10_229)">
<path d="M87.5397 -51.5127C164.626 -51.5127 226.642 10.5038 226.642 87.5897C226.642 164.676 164.626 226.692 87.5397 226.692C10.4538 226.692 -51.5627 164.676 -51.5627 87.5897C-51.5627 10.5038 10.4538 -51.5127 87.5397 -51.5127Z" fill="url(#paint0_linear_10_229)"/>
</g>
<defs>
<linearGradient id="paint0_linear_10_229" x1="87.5397" y1="-51.5127" x2="87.5397" y2="226.692" gradientUnits="userSpaceOnUse">
<stop stop-color="#FFAF35"/>
<stop offset="0.296875" stop-color="#FF3E40"/>
<stop offset="0.71875" stop-color="#9129E2"/>
<stop offset="1" stop-color="#184AD5"/>
</linearGradient>
</defs>
</svg>
