<svg width="161" height="163" viewBox="0 0 161 163" fill="none" xmlns="http://www.w3.org/2000/svg">
<mask id="mask0_10_232" style="mask-type:alpha" maskUnits="userSpaceOnUse" x="0" y="0" width="161" height="163">
<path d="M138.287 23.9938C123.217 8.92436 102.932 0.230469 81.4866 0.230469C36.8579 0.230469 0.92317 36.7449 1.50276 80.794C1.50276 94.7042 5.55985 108.614 11.9354 120.786L0.343506 162.517L42.6537 151.504C54.2456 157.88 67.5765 161.357 80.9071 161.357C124.956 161.357 160.891 124.843 160.891 80.794C161.471 58.7694 152.776 39.0632 138.287 23.9938ZM81.4866 147.447C69.8947 147.447 57.7233 144.549 47.8702 138.174L44.9723 137.014L19.47 143.39L25.8458 118.468L24.1067 115.57C4.98011 84.2715 14.2537 43.1204 45.5517 23.9938C76.8497 4.86721 118.001 14.1407 137.127 45.4387C156.254 76.7368 146.981 117.888 115.683 137.014C105.83 143.97 93.658 147.447 81.4866 147.447ZM119.74 98.7613L115.103 96.443C115.103 96.443 108.148 93.545 103.511 91.2266C102.931 91.2266 102.352 90.647 102.352 90.647C101.193 90.647 100.033 91.2266 99.4538 91.8062C99.4538 91.8062 98.8744 92.3858 93.0784 99.3409C92.4988 100.5 91.9191 100.5 90.7599 100.5H90.1805C89.6009 100.5 89.0213 99.9205 88.4418 99.3409L86.1232 98.1817C81.4865 95.8634 76.8497 93.545 73.3721 90.0674C72.2129 88.9082 71.0537 88.3287 70.4742 87.1695C67.5762 84.2715 64.0988 80.7939 62.3601 76.7368L61.7803 75.5776C61.2007 74.998 61.2009 74.4184 60.6213 73.8388C60.6213 72.6796 60.6212 72.1 61.2008 71.5204C61.2008 71.5204 62.9396 69.2021 64.0988 68.0429C65.2579 66.8837 65.2581 65.7245 66.4173 65.1449C67.5765 63.9857 67.5762 62.247 67.5762 60.5082C66.9966 58.1898 61.7805 46.5979 60.6213 43.7C59.4622 42.5408 58.8826 41.9612 57.7234 41.3816H56.5641C55.4049 41.3816 54.2455 41.3816 53.0864 41.3816C51.9272 41.3816 51.3476 41.9612 50.1884 41.9612L49.6089 42.5408C48.4497 43.1204 47.8702 43.7 46.711 44.2796C45.5518 45.4387 45.5516 46.0183 44.3925 47.1775C41.4945 51.2347 39.7558 55.8714 39.7558 60.5082C39.7558 63.9857 40.9151 67.4633 42.0743 70.3613L42.6537 71.5204C46.7109 79.6348 51.9272 87.1694 58.8823 94.1246L60.6213 95.8634C61.7805 97.0226 63.5192 98.1817 64.0988 99.3409C73.3723 107.455 83.8051 112.672 95.3969 116.149C96.5561 116.729 98.2948 116.729 100.034 117.308C101.193 117.308 102.932 117.308 104.67 117.308C106.989 117.308 109.307 116.149 111.046 115.57C112.205 114.41 113.364 114.41 113.944 113.831L115.103 112.672C116.262 111.512 116.842 111.512 118.001 110.353C119.16 109.194 119.74 108.614 120.319 107.455C121.479 105.716 121.479 103.398 122.058 101.08C122.058 99.9205 122.058 98.7613 122.058 98.1817C121.479 99.9205 120.899 99.3409 119.74 98.7613Z" fill="white"/>
</mask>
<g mask="url(#mask0_10_232)">
<path d="M75.6905 -52.5127C152.776 -52.5127 214.793 9.50379 214.793 86.5897C214.793 163.676 152.776 225.692 75.6905 225.692C-1.39538 225.692 -63.4119 163.676 -63.4119 86.5897C-63.4119 9.50379 -1.39538 -52.5127 75.6905 -52.5127Z" fill="url(#paint0_linear_10_232)"/>
</g>
<defs>
<linearGradient id="paint0_linear_10_232" x1="75.6905" y1="-52.5127" x2="75.6905" y2="225.692" gradientUnits="userSpaceOnUse">
<stop stop-color="#00F39F"/>
<stop offset="1" stop-color="#08C541"/>
</linearGradient>
</defs>
</svg>
